<svg 
 xmlns="http://www.w3.org/2000/svg"
 xmlns:xlink="http://www.w3.org/1999/xlink"
 width="120px" height="97px">
<path fill-rule="evenodd"  fill="rgb(141, 152, 157)"
 d="M111.864,42.903 C113.081,37.661 118.871,39.170 118.871,39.170 C118.871,39.170 117.571,45.377 111.906,43.615 C112.032,46.048 111.948,48.522 111.654,50.954 C113.542,45.293 119.375,47.851 119.375,47.851 C119.375,47.851 117.067,53.847 111.654,51.080 C111.402,53.219 110.983,55.357 110.395,57.454 C112.955,52.589 118.242,55.609 118.242,55.609 C118.242,55.609 115.305,61.312 110.269,58.041 C109.724,60.012 108.969,61.983 108.130,63.870 C111.570,60.473 115.682,64.205 115.682,64.205 C115.682,64.205 111.696,68.986 107.542,65.044 C107.458,65.212 107.374,65.422 107.290,65.589 C106.199,67.728 104.941,69.741 103.556,71.670 C108.465,68.608 111.360,74.186 111.360,74.186 C111.360,74.186 105.822,77.374 103.346,71.922 C102.045,73.683 100.619,75.361 99.066,76.912 C103.346,74.899 106.031,79.679 106.031,79.679 C106.031,79.679 100.744,82.951 98.059,77.877 C96.297,79.512 94.450,81.022 92.436,82.364 C97.094,81.315 98.688,86.557 98.688,86.557 C98.688,86.557 92.856,88.654 91.303,83.118 C89.373,84.334 87.317,85.383 85.219,86.306 C90.338,85.299 91.429,91.044 91.429,91.044 C91.429,91.044 85.219,92.554 84.380,86.641 C82.198,87.522 80.016,88.193 77.750,88.738 C82.995,88.318 83.415,94.190 83.415,94.190 C83.415,94.190 77.078,94.986 76.953,88.947 C75.316,89.283 73.680,89.534 72.001,89.703 C71.330,89.786 70.659,89.828 69.987,89.870 L69.861,89.870 C73.931,91.128 73.260,96.119 73.260,96.119 C73.260,96.119 67.050,95.615 67.931,89.912 L67.931,89.870 L63.315,89.870 L56.224,89.870 L51.608,89.870 L51.608,89.912 C52.490,95.615 46.279,96.119 46.279,96.119 C46.279,96.119 45.608,91.128 49.678,89.870 L49.552,89.870 C48.881,89.828 48.210,89.786 47.538,89.703 C45.860,89.577 44.223,89.283 42.587,88.947 C42.503,94.986 36.125,94.190 36.125,94.190 C36.125,94.190 36.545,88.318 41.790,88.738 C39.524,88.235 37.300,87.522 35.160,86.641 C34.321,92.554 28.110,91.044 28.110,91.044 C28.110,91.044 29.201,85.341 34.321,86.306 C32.223,85.425 30.166,84.334 28.236,83.118 C26.726,88.654 20.851,86.557 20.851,86.557 C20.851,86.557 22.446,81.315 27.103,82.364 C25.089,81.022 23.243,79.512 21.481,77.877 C18.795,82.993 13.508,79.679 13.508,79.679 C13.508,79.679 16.194,74.899 20.474,76.912 C18.921,75.361 17.494,73.683 16.194,71.922 C13.718,77.374 8.179,74.186 8.179,74.186 C8.179,74.186 11.032,68.608 15.984,71.670 C14.557,69.741 13.340,67.728 12.249,65.589 C12.165,65.422 12.081,65.212 11.998,65.044 C7.801,68.986 3.857,64.205 3.857,64.205 C3.857,64.205 7.969,60.473 11.410,63.870 C10.571,61.941 9.858,60.012 9.270,58.041 C4.235,61.312 1.297,55.609 1.297,55.609 C1.297,55.609 6.543,52.632 9.102,57.454 C8.515,55.357 8.095,53.219 7.843,51.080 C2.430,53.890 0.123,47.851 0.123,47.851 C0.123,47.851 5.997,45.293 7.843,50.954 C7.550,48.522 7.466,46.090 7.592,43.615 C1.927,45.377 0.626,39.170 0.626,39.170 C0.626,39.170 6.417,37.661 7.634,42.903 C7.676,41.854 7.801,40.847 7.927,39.800 C8.053,38.876 8.221,37.954 8.389,37.031 C2.514,38.248 1.843,31.915 1.843,31.915 C1.843,31.915 7.969,30.951 8.473,36.612 C8.934,34.432 9.564,32.293 10.319,30.238 C4.487,29.944 5.284,23.738 5.284,23.738 C5.284,23.738 10.948,24.158 10.739,29.148 C11.578,27.051 12.585,25.039 13.718,23.109 C7.676,23.151 8.263,16.777 8.263,16.777 C8.263,16.777 14.599,17.028 13.802,22.900 C14.893,21.054 16.110,19.293 17.494,17.615 C16.571,11.996 22.739,11.409 22.739,11.409 C22.739,11.409 23.663,17.699 17.746,17.993 C16.949,18.957 16.236,19.964 15.522,21.012 C18.418,18.916 22.026,21.432 22.026,21.432 C22.026,21.432 18.711,26.674 14.096,23.277 C13.089,24.996 12.165,26.757 11.410,28.561 C13.844,24.996 18.459,27.219 18.459,27.219 C18.459,27.219 15.984,33.048 10.739,30.238 C10.109,31.999 9.564,33.719 9.144,35.522 C11.410,31.580 16.277,33.719 16.277,33.719 C16.277,33.719 14.054,39.548 8.809,37.074 C8.473,38.835 8.221,40.638 8.095,42.441 C9.816,37.786 15.187,39.548 15.187,39.548 C15.187,39.548 13.550,45.629 8.053,43.615 C7.969,45.586 8.011,47.558 8.179,49.528 C9.354,45.125 14.599,45.964 14.599,45.964 C14.599,45.964 13.928,52.086 8.347,51.122 C8.599,53.051 8.976,54.938 9.480,56.825 C9.900,51.919 15.522,52.212 15.522,52.212 C15.522,52.212 15.522,58.461 9.816,58.041 C10.445,60.180 11.242,62.277 12.207,64.331 C11.032,58.880 17.033,57.874 17.033,57.874 C17.033,57.874 18.375,64.122 12.417,64.793 C12.501,65.003 12.627,65.212 12.711,65.422 C13.592,67.141 14.557,68.777 15.606,70.328 C14.347,66.051 19.131,63.954 19.131,63.954 C19.131,63.954 21.900,69.532 16.571,71.712 C18.040,73.683 19.634,75.570 21.397,77.247 C18.459,72.425 23.872,69.532 23.872,69.532 C23.872,69.532 27.145,74.983 21.732,77.541 C23.705,79.386 25.845,81.064 28.110,82.531 C24.124,78.464 28.824,74.438 28.824,74.438 C28.824,74.438 33.230,79.093 28.446,82.741 C30.376,83.957 32.432,85.005 34.530,85.928 C30.838,82.364 34.824,78.170 34.824,78.170 C34.824,78.170 39.566,82.279 35.453,86.348 C37.510,87.187 39.650,87.857 41.832,88.360 C37.761,85.257 41.244,80.644 41.244,80.644 C41.244,80.644 46.363,84.125 42.881,88.612 C44.433,88.906 46.028,89.157 47.622,89.325 C48.587,89.409 49.510,89.451 50.475,89.492 L51.315,89.492 C46.111,86.893 49.342,81.525 49.342,81.525 C49.342,81.525 54.965,84.544 51.650,89.492 L56.182,89.492 L63.273,89.492 L67.847,89.492 C64.574,84.544 70.155,81.525 70.155,81.525 C70.155,81.525 73.386,86.893 68.183,89.492 L69.022,89.492 C69.987,89.492 70.910,89.409 71.875,89.325 C73.470,89.199 75.064,88.947 76.617,88.612 C73.134,84.125 78.253,80.644 78.253,80.644 C78.253,80.644 81.694,85.215 77.666,88.360 C79.848,87.857 81.988,87.187 84.044,86.348 C79.932,82.238 84.673,78.170 84.673,78.170 C84.673,78.170 88.660,82.364 84.967,85.928 C87.065,85.048 89.121,83.957 91.051,82.741 C86.268,79.093 90.674,74.438 90.674,74.438 C90.674,74.438 95.373,78.464 91.387,82.531 C93.653,81.064 95.793,79.386 97.765,77.541 C92.352,75.025 95.625,69.532 95.625,69.532 C95.625,69.532 101.038,72.425 98.101,77.247 C99.863,75.570 101.458,73.683 102.926,71.712 C97.597,69.532 100.367,63.954 100.367,63.954 C100.367,63.954 105.150,66.051 103.891,70.328 C104.940,68.777 105.906,67.141 106.787,65.422 C106.871,65.212 106.997,65.003 107.080,64.793 C101.122,64.122 102.465,57.874 102.465,57.874 C102.465,57.874 108.465,58.880 107.290,64.331 C108.255,62.277 109.053,60.180 109.682,58.041 C103.975,58.418 103.975,52.212 103.975,52.212 C103.975,52.212 109.556,51.919 110.018,56.825 C110.521,54.938 110.899,53.009 111.151,51.122 C105.570,52.086 104.899,45.964 104.899,45.964 C104.899,45.964 110.144,45.125 111.319,49.528 C111.486,47.558 111.528,45.586 111.444,43.615 C105.989,45.629 104.311,39.548 104.311,39.548 C104.311,39.548 109.682,37.786 111.402,42.441 C111.277,40.638 111.025,38.835 110.689,37.074 C105.444,39.548 103.220,33.719 103.220,33.719 C103.220,33.719 108.088,31.580 110.353,35.522 C109.934,33.719 109.388,31.958 108.759,30.238 C103.514,33.090 101.038,27.219 101.038,27.219 C101.038,27.219 105.654,24.996 108.088,28.561 C107.332,26.757 106.409,24.996 105.402,23.277 C100.786,26.674 97.472,21.432 97.472,21.432 C97.472,21.432 101.080,18.916 103.975,21.012 C103.304,19.964 102.549,18.957 101.751,17.993 C95.835,17.699 96.758,11.409 96.758,11.409 C96.758,11.409 102.926,11.996 102.003,17.615 C103.346,19.293 104.605,21.054 105.696,22.900 C104.899,17.070 111.235,16.777 111.235,16.777 C111.235,16.777 111.822,23.193 105.780,23.109 C106.913,25.039 107.920,27.051 108.759,29.148 C108.549,24.158 114.214,23.738 114.214,23.738 C114.214,23.738 114.969,29.987 109.178,30.238 C109.934,32.293 110.563,34.432 111.025,36.612 C111.528,30.951 117.655,31.915 117.655,31.915 C117.655,31.915 116.983,38.248 111.109,37.031 C111.276,37.912 111.444,38.876 111.570,39.800 C111.696,40.847 111.780,41.854 111.864,42.903 ZM59.581,81.567 C37.174,81.567 18.921,63.325 18.921,40.974 C18.921,18.580 37.174,0.380 59.581,0.380 C81.988,0.380 100.199,18.580 100.199,40.974 C100.199,63.367 81.988,81.567 59.581,81.567 ZM59.581,2.519 C38.349,2.519 21.103,19.754 21.103,40.974 C21.103,62.193 38.391,79.428 59.581,79.428 C80.813,79.428 98.059,62.151 98.059,40.974 C98.059,19.754 80.771,2.519 59.581,2.519 ZM80.300,46.762 L82.396,53.237 L76.955,49.220 L71.514,53.237 L73.610,46.762 L68.450,42.989 L63.290,46.762 L65.386,53.237 L59.945,49.220 L54.504,53.237 L56.600,46.762 L51.440,42.989 L46.280,46.762 L48.376,53.237 L42.935,49.220 L37.494,53.237 L39.590,46.762 L34.132,42.770 L40.868,42.785 L42.935,36.302 L45.003,42.785 L51.144,42.772 L51.142,42.770 L51.440,42.771 L51.738,42.770 L51.736,42.772 L57.878,42.785 L59.945,36.302 L62.013,42.785 L68.154,42.772 L68.152,42.770 L68.450,42.771 L68.748,42.770 L68.746,42.772 L74.888,42.785 L76.955,36.302 L79.023,42.785 L85.758,42.770 L80.300,46.762 ZM44.281,43.789 L42.935,39.568 L41.589,43.789 L37.203,43.780 L40.757,46.379 L39.392,50.595 L42.935,47.980 L46.478,50.595 L45.113,46.379 L48.668,43.780 L44.281,43.789 ZM61.291,43.789 L59.945,39.568 L58.599,43.789 L54.213,43.780 L57.767,46.379 L56.402,50.595 L59.945,47.980 L63.488,50.595 L62.123,46.379 L65.678,43.780 L61.291,43.789 ZM78.301,43.789 L76.955,39.568 L75.609,43.789 L71.223,43.780 L74.777,46.379 L73.412,50.595 L76.955,47.980 L80.498,50.595 L79.133,46.379 L82.687,43.780 L78.301,43.789 ZM49.510,29.064 L48.713,27.512 L70.071,27.512 L69.274,29.064 L49.510,29.064 ZM74.393,20.802 C74.141,20.802 73.890,20.677 73.722,20.467 L70.575,26.464 L48.168,26.464 L45.146,20.677 C45.021,20.761 44.895,20.802 44.727,20.802 C44.223,20.802 43.846,20.383 43.846,19.880 C43.846,19.376 44.223,18.999 44.727,18.999 C45.231,18.999 45.608,19.376 45.608,19.880 C45.608,20.131 45.482,20.383 45.272,20.551 C45.944,21.054 47.664,22.019 48.965,21.096 C50.434,20.090 50.014,17.951 49.846,17.280 C49.720,17.322 49.594,17.364 49.468,17.364 C48.965,17.364 48.587,16.986 48.587,16.484 C48.587,15.980 48.965,15.603 49.468,15.603 C49.972,15.603 50.350,15.980 50.350,16.484 C50.350,16.819 50.182,17.112 49.888,17.238 C50.266,17.825 51.567,19.712 53.748,19.167 C55.511,18.706 55.805,16.944 55.805,15.812 C55.763,15.812 55.763,15.812 55.721,15.812 C55.217,15.812 54.839,15.435 54.839,14.932 C54.839,14.428 55.217,14.051 55.721,14.051 C56.224,14.051 56.602,14.428 56.602,14.932 C56.602,15.351 56.350,15.686 55.972,15.770 C56.308,16.860 57.231,18.538 59.371,18.412 C61.679,18.538 62.560,16.651 62.854,15.560 C62.392,15.519 62.015,15.141 62.015,14.680 C62.015,14.177 62.392,13.800 62.896,13.800 C63.399,13.800 63.777,14.177 63.777,14.680 C63.777,15.141 63.399,15.560 62.938,15.560 C62.896,16.651 63.106,18.664 64.994,19.167 C66.924,19.670 68.183,18.244 68.686,17.490 C68.393,17.364 68.225,17.070 68.225,16.735 C68.225,16.232 68.603,15.854 69.106,15.854 C69.610,15.854 69.987,16.232 69.987,16.735 C69.987,17.238 69.610,17.615 69.106,17.615 C68.980,17.615 68.896,17.615 68.812,17.574 C68.645,18.412 68.435,20.215 69.736,21.138 C71.204,22.186 73.218,20.844 73.680,20.467 C73.596,20.299 73.512,20.131 73.512,19.922 C73.512,19.419 73.890,19.041 74.393,19.041 C74.897,19.041 75.274,19.419 75.274,19.922 C75.274,20.425 74.897,20.802 74.393,20.802 ZM49.373,57.527 L51.440,51.044 L53.508,57.527 L59.649,57.514 L59.647,57.512 L59.945,57.513 L60.243,57.512 L60.242,57.514 L66.383,57.527 L68.450,51.044 L70.517,57.527 L77.253,57.512 L71.795,61.505 L73.891,67.979 L68.450,63.963 L63.009,67.979 L65.105,61.505 L59.945,57.730 L54.785,61.505 L56.881,67.979 L51.440,63.963 L45.999,67.979 L48.095,61.505 L42.637,57.512 L49.373,57.527 ZM66.272,61.121 L64.907,65.337 L68.450,62.722 L71.993,65.337 L70.628,61.121 L74.182,58.521 L69.796,58.531 L68.450,54.310 L67.104,58.531 L62.718,58.521 L66.272,61.121 ZM47.897,65.337 L51.440,62.722 L54.983,65.337 L53.618,61.121 L57.172,58.521 L52.786,58.531 L51.440,54.310 L50.094,58.531 L45.708,58.521 L49.262,61.121 L47.897,65.337 Z"/>
</svg>