<svg 
 xmlns="http://www.w3.org/2000/svg"
 xmlns:xlink="http://www.w3.org/1999/xlink"
 width="16px" height="19px">
<path fill-rule="evenodd"  fill="rgb(215, 0, 0)"
 d="M11.565,16.094 L11.565,16.094 C10.433,16.887 7.883,18.503 7.883,18.503 C7.883,18.503 5.441,16.898 4.363,16.117 C1.963,14.363 0.747,12.147 0.747,9.533 L0.747,4.233 C3.315,3.104 5.753,1.698 8.016,0.041 C10.279,1.698 12.716,3.104 15.285,4.233 L15.285,9.533 C15.285,12.134 14.034,14.343 11.565,16.094 ZM11.682,6.010 L7.439,10.253 L5.318,8.132 L4.257,9.192 L7.439,12.374 L8.500,11.313 L12.742,7.071 L11.682,6.010 Z"/>
</svg>