<svg 
 xmlns="http://www.w3.org/2000/svg"
 xmlns:xlink="http://www.w3.org/1999/xlink"
 width="117px" height="110px">
<path fill-rule="evenodd"  fill="rgb(12, 47, 223)"
 d="M101.850,60.853 C96.164,62.654 90.377,64.556 84.890,67.058 C82.795,67.959 80.600,69.260 78.605,70.561 C77.806,67.659 78.605,64.356 80.799,62.654 C82.495,63.955 84.591,64.556 86.885,64.256 C91.475,63.755 93.969,59.552 95.765,55.248 C99.057,53.646 102.349,52.145 105.342,50.143 C104.744,53.546 103.547,57.150 102.349,60.352 C102.249,60.752 102.449,60.752 101.850,60.853 M80.201,73.363 C86.187,70.861 94.069,68.059 100.154,66.157 C97.660,70.461 87.284,79.168 80.201,73.363 M94.567,55.748 C93.470,58.150 91.874,61.053 89.579,62.354 C87.384,63.755 83.593,63.655 81.498,61.954 C84.990,59.351 90.377,57.450 94.567,55.748 M98.059,36.432 C97.860,40.935 97.361,44.939 96.164,49.042 C94.667,49.943 82.994,55.848 80.201,60.252 C77.407,51.745 93.570,42.237 98.059,36.432 M99.256,35.130 C100.553,33.629 103.048,29.025 103.447,28.024 C105.442,23.320 105.542,18.016 105.442,15.914 C106.141,18.016 106.440,20.318 106.739,22.520 C107.637,29.425 107.138,36.932 106.240,44.038 C103.447,45.840 100.553,47.141 97.560,48.442 C98.558,44.138 99.256,39.935 99.256,35.130 M91.973,83.072 C89.679,85.274 86.785,87.876 84.391,90.278 C79.702,88.677 74.215,88.176 69.226,89.177 C69.226,87.476 69.326,85.974 69.825,84.373 C76.709,82.972 84.690,83.372 91.973,83.072 M88.781,96.784 C86.287,99.085 81.398,100.587 76.609,99.286 L81.997,94.882 C84.291,95.783 86.486,96.083 88.781,96.784 M75.711,98.985 C75.711,98.985 71.421,96.683 69.426,91.079 C73.217,91.379 77.507,93.281 80.899,94.482 C80.999,94.482 77.307,97.584 75.711,98.985 M64.737,101.988 C65.734,98.885 65.635,95.382 64.437,92.180 C64.637,92.080 67.131,91.079 68.428,91.179 C70.623,97.184 74.713,99.186 75.013,99.586 C72.219,101.688 68.328,102.889 64.737,101.988 M63.440,101.488 C58.351,96.984 62.841,93.080 63.540,92.780 C64.338,95.282 64.437,98.985 63.440,101.488 M50.570,101.788 C56.556,97.384 53.363,93.180 51.168,91.179 C51.667,90.278 52.166,89.077 53.363,88.076 C54.660,89.277 55.159,90.979 55.359,92.980 C55.658,92.980 55.658,92.980 56.157,92.980 C56.257,90.878 55.359,88.777 54.161,87.275 C54.959,86.575 57.055,84.773 57.653,84.473 C58.751,85.374 59.649,86.375 60.646,87.576 C60.646,87.576 58.152,90.078 58.252,93.080 L59.050,93.080 C59.449,91.479 59.250,90.478 61.444,88.376 C62.342,89.377 62.941,90.478 63.340,91.679 C62.043,92.680 56.955,97.184 63.240,102.288 C56.356,112.497 50.570,102.388 50.570,101.788 M50.769,92.180 C55.259,96.483 51.667,99.886 50.171,100.887 C50.171,100.887 48.973,96.784 50.769,92.180 M48.774,101.388 C45.082,101.988 41.191,100.187 38.697,98.185 C43.985,95.182 45.481,90.778 45.881,90.278 C47.277,90.478 48.574,90.979 49.772,91.579 C48.674,93.981 47.676,98.085 48.774,101.388 M33.210,92.680 C36.802,91.679 40.792,90.278 44.883,90.178 C44.883,90.778 41.591,95.883 38.198,97.484 C36.502,95.983 33.210,92.680 33.210,92.680 M25.229,94.482 C25.827,94.381 30.017,93.581 32.113,93.080 C33.709,94.582 35.505,96.383 37.201,97.885 C37.101,97.784 29.918,99.085 25.229,94.482 M23.134,80.570 C28.022,80.970 41.890,82.071 44.983,83.372 C45.482,84.773 45.482,86.775 45.282,88.276 C40.493,87.075 34.806,86.975 30.018,88.276 C30.018,88.276 25.229,82.972 23.134,80.570 M46.180,83.672 C48.375,84.273 50.669,85.874 52.565,87.275 C51.468,88.476 50.969,89.277 50.370,90.578 C49.173,89.677 48.275,89.277 46.180,88.576 C46.379,86.975 46.379,85.173 46.180,83.672 M37.999,69.660 C39.496,65.957 38.697,63.155 36.901,59.652 C42.389,52.445 35.405,42.537 30.416,37.432 C27.823,34.730 21.737,27.924 21.238,27.124 C20.041,15.514 25.727,5.205 26.126,4.304 C23.333,10.309 21.936,18.816 37.799,38.533 C40.593,42.036 44.484,45.940 44.284,51.144 C44.185,55.748 40.493,59.451 40.992,63.655 C41.391,66.457 42.888,68.759 45.881,69.360 C49.073,69.960 51.567,69.060 53.563,66.858 C59.948,58.450 50.071,52.345 50.071,43.938 C50.071,40.735 51.867,38.834 54.660,37.833 C56.556,37.232 59.150,36.732 60.646,38.233 C60.048,38.333 58.950,38.533 57.653,39.134 L57.653,39.134 C57.454,38.834 57.154,38.734 56.855,38.734 C56.356,38.734 55.857,39.134 55.857,39.734 L55.957,40.135 C56.057,40.535 56.456,40.735 56.955,40.635 L57.055,40.635 C57.254,40.635 57.454,40.535 57.653,40.335 C58.950,39.534 60.447,39.334 61.145,39.234 L61.145,39.234 C67.131,38.834 65.535,42.036 65.535,42.036 C65.535,42.036 60.946,39.434 56.356,43.738 C49.672,51.244 80.400,66.157 57.354,83.072 C56.356,82.171 53.463,80.169 51.468,79.369 C51.268,79.569 51.168,79.769 51.069,79.969 C53.064,80.870 55.059,82.171 56.656,83.572 C55.259,84.473 54.461,85.274 53.363,86.274 C51.268,84.173 48.874,82.471 45.881,81.170 C44.484,76.766 41.491,72.763 37.999,69.660 M37.201,68.960 C31.813,64.856 22.934,60.752 14.354,57.450 C13.556,55.448 12.159,47.941 12.059,46.740 C14.553,48.742 18.145,51.044 21.338,52.646 C25.328,65.757 33.908,62.154 35.604,60.953 C37.799,63.055 38.198,65.957 37.201,68.960 M16.050,63.055 C20.440,64.656 34.307,71.061 35.405,71.662 C34.008,73.163 24.829,76.466 16.050,63.055 M13.755,14.313 C13.556,16.715 13.855,22.820 19.242,32.228 C19.043,36.732 19.342,41.236 19.941,45.539 C16.948,44.038 14.454,42.237 11.660,40.635 C11.361,36.832 11.860,18.416 13.755,14.313 M35.006,60.252 C34.407,60.853 26.127,64.556 22.535,53.146 C26.526,54.947 31.614,57.350 35.006,60.252 M20.340,33.529 C22.734,37.432 39.994,50.644 36.403,58.450 C32.113,52.445 21.737,46.841 21.338,46.240 C20.440,42.337 20.240,37.833 20.340,33.529 M68.628,84.573 C68.428,86.175 68.229,86.775 68.328,89.377 C66.832,89.778 65.236,90.278 64.038,91.079 C63.540,89.778 62.841,88.677 62.043,87.676 C62.043,87.676 65.236,85.374 68.628,84.573 M113.424,71.061 C116.417,75.165 103.147,78.768 97.361,78.968 C97.361,78.868 109.333,67.158 113.424,71.061 M105.043,91.179 C105.442,92.980 100.055,97.084 92.971,93.681 C99.855,88.576 104.644,88.777 105.043,91.179 M9.365,87.976 C10.064,83.172 19.242,88.977 21.238,90.878 C18.245,92.380 9.465,92.380 9.365,87.976 M2.282,67.358 C5.275,63.055 14.853,72.463 18.045,75.966 C16.150,75.665 -0.312,72.062 2.282,67.358 M103.746,60.252 C106.240,53.546 105.941,52.846 106.839,49.443 C114.720,45.239 116.516,34.930 116.417,33.829 C116.217,30.727 116.417,32.428 116.117,33.529 C115.219,36.532 112.326,40.035 109.732,42.036 C109.034,42.437 108.236,43.137 107.437,43.538 C107.637,40.735 110.730,22.920 103.746,9.108 L103.746,9.108 C105.941,16.014 102.948,23.520 98.857,28.725 C98.758,27.724 97.161,9.909 89.380,0.901 L88.681,0.100 C89.878,2.002 91.275,12.911 85.089,23.420 C81.897,28.224 77.607,32.428 73.816,36.732 C70.224,41.236 68.528,45.639 70.224,53.446 C70.823,55.548 71.621,58.751 72.618,59.551 C73.217,59.752 73.117,59.051 72.918,58.651 C71.920,56.649 70.523,48.442 79.702,37.833 C95.066,20.017 90.776,4.504 90.776,4.504 C93.270,7.106 97.261,21.919 97.660,30.026 C92.871,35.531 75.711,47.941 78.305,57.750 C78.604,59.051 79.103,60.352 79.702,61.353 C77.407,65.056 76.709,67.759 77.906,71.362 C74.514,74.164 70.723,77.967 69.127,82.271 C66.333,83.272 63.739,84.673 61.345,86.875 C60.447,85.774 59.649,84.973 58.551,84.073 C59.250,83.672 66.134,79.969 68.827,77.067 C71.421,74.364 73.018,70.561 72.020,66.357 C70.324,59.051 53.862,49.343 57.354,45.139 C59.150,42.837 63.240,41.836 65.635,43.438 L65.635,43.438 L65.635,43.438 L65.635,43.438 L65.635,43.438 L66.134,43.838 C67.231,42.237 68.328,38.133 61.943,38.233 C61.444,36.932 59.848,36.432 58.551,36.231 C54.461,35.931 50.570,37.833 49.073,41.336 C47.178,45.840 52.765,55.648 52.465,62.054 C52.665,67.458 41.890,71.061 41.990,62.654 C42.089,58.851 50.869,48.542 42.688,36.632 C39.595,32.528 36.004,28.725 33.011,24.822 C21.936,10.609 28.521,0.000 28.421,0.000 C17.547,14.012 20.140,25.622 19.841,25.122 C19.143,23.821 13.057,16.514 15.950,7.006 C15.950,7.006 9.266,15.413 10.463,39.835 C9.266,39.134 2.282,32.829 2.581,28.024 C2.581,28.024 0.985,38.533 10.762,46.040 C11.560,49.843 11.760,53.146 12.957,56.949 C9.166,55.548 3.280,51.044 1.384,46.841 C1.085,46.040 2.482,56.449 14.354,62.354 C23.832,78.668 34.507,74.364 36.702,72.162 C39.795,73.363 44.284,79.869 44.484,80.770 C38.198,78.768 28.122,76.466 20.240,76.166 C15.751,71.662 5.874,62.254 1.584,66.758 C-3.006,72.663 12.857,79.469 21.138,80.269 C23.333,82.671 26.625,85.874 28.820,88.576 C26.326,89.177 25.927,89.377 22.435,90.578 C10.563,80.870 8.767,87.476 8.767,87.476 C6.971,95.382 22.236,94.982 24.031,94.582 C28.421,99.186 34.906,99.586 37.999,98.585 C42.588,102.889 47.577,102.689 49.073,102.388 C54.062,113.998 62.741,108.293 64.737,102.989 C69.127,104.090 72.818,102.388 76.011,99.986 C78.206,100.787 84.391,101.888 90.178,97.084 C104.943,99.886 106.440,92.080 105.741,90.578 C103.547,86.175 94.567,91.179 92.073,93.281 C89.479,92.180 88.382,91.479 85.888,90.678 C88.482,87.876 91.475,85.274 94.168,82.972 C123.999,80.770 119.110,56.649 95.565,78.968 C88.681,78.868 78.106,79.869 70.823,81.771 C70.723,81.170 75.412,75.265 79.303,73.764 C86.586,80.370 97.461,73.764 102.249,65.557 C109.433,62.854 114.321,57.450 116.017,51.945 L116.417,50.944 C114.621,53.646 109.333,58.751 103.746,60.252 "/>
</svg>